<?xml version="1.0" encoding="UTF-8" standalone="no"?>
<svg
   xmlns:dc="http://purl.org/dc/elements/1.1/"
   xmlns:cc="http://creativecommons.org/ns#"
   xmlns:rdf="http://www.w3.org/1999/02/22-rdf-syntax-ns#"
   xmlns:svg="http://www.w3.org/2000/svg"
   xmlns="http://www.w3.org/2000/svg"
   width="258.80862"
   height="87"
   viewBox="0 0 258.80862 87.000001"
   id="svg2"
   version="1.1">
  <defs
     id="defs4" />
  <metadata
     id="metadata7">
    <rdf:RDF>
      <cc:Work
         rdf:about="">
        <dc:format>image/svg+xml</dc:format>
        <dc:type
           rdf:resource="http://purl.org/dc/dcmitype/StillImage" />
        <dc:title></dc:title>
      </cc:Work>
    </rdf:RDF>
  </metadata>
  <g
     id="g6756">
    <path
       style="fill:#e20c1a"
       d="m 228.3572,19.65783 c -16.79097,0 -30.45142,10.245338 -30.45142,22.881255 0,12.635916 13.66045,22.881254 30.45142,22.881254 16.79097,0 30.45142,-10.245338 30.45142,-22.881254 C 258.7517,29.903168 245.14817,19.65783 228.3572,19.65783 m 28.74386,20.71835 0,0 0,0.05692 0,0.05692 0,0.05692 -0.0569,0 0,0 c -0.17075,0 -1.19528,0.05692 -2.10598,0.05692 -0.0569,0 -0.17076,0 -0.22768,0 l 0,0 c -0.34151,0 -0.91069,0 -1.19529,-0.05692 l 0,0 -0.11383,0 -0.11384,0 -0.11384,0 -0.11383,0 c -0.11384,0 -0.22768,0 -0.34151,-0.05692 -0.11384,0 -0.17076,0 -0.22768,-0.05692 -11.61138,-1.764475 -17.64475,-18.100097 -29.99607,-18.612364 0.11384,0 7.00098,-1.821394 15.93719,0.683022 0.34151,0.113837 0.68302,0.170756 0.96762,0.284593 8.13935,2.504416 16.44946,9.050048 17.70166,17.58783 m -0.34151,5.748773 c -2.27674,9.163886 -12.80667,15.25417 -21.40137,17.132482 -3.87046,0.967615 -8.99313,0.967615 -12.86359,0 12.52208,-0.512267 18.55544,-17.246319 30.3945,-18.669283 l 0,-0.05692 0,0.05692 c 0,0 1.59372,-0.284592 3.81354,-0.113837 l 0,0 0.17076,0 0.17075,0 c 0.0569,0 0,0.512267 -0.28459,1.650638 m 0.34151,-2.73209 -48.55151,0 0,0 -0.73995,0 c 0,0.284593 0,0.626104 0.0569,0.910697 0.0569,0.739941 0.2846,1.5368 0.62611,2.276741 0.34151,0.739941 0.68302,1.366045 1.02453,1.878312 1.5368,2.504416 3.9843,4.553484 5.86261,6.944063 5.46418,-4.268891 10.64377,-9.220804 17.30324,-10.58685 -5.91953,4.781158 -11.78214,12.52208 -19.0108,15.538763 -7.11481,-1.764475 -13.14818,-9.277723 -13.88812,-16.221785 -0.0569,-0.512267 -0.0569,-0.967615 -0.0569,-1.479882 0,-0.512267 0.0569,-1.024534 0.0569,-1.536801 0.79686,-6.944062 6.77331,-14.45731 13.88812,-16.221785 7.22866,3.073601 13.09127,10.814523 19.0108,15.595681 -6.65947,-1.422963 -11.83906,-6.374877 -17.30324,-10.586849 -1.59372,1.992149 -3.64279,3.813542 -5.17959,5.86261 -0.39843,0.455348 -1.59372,2.105986 -2.1629,4.041217 0,0 0,0.05692 0,0.05692 -0.17076,0.626104 -0.28459,1.309127 -0.22768,1.935231 l 0.68303,0 48.60843,0 0,1.593719 z"
       class="st5"
       id="XMLID_10_" />
    <polygon
       transform="matrix(0.56918544,0,0,0.56918544,-13.262021,-100.15571)"
       style="fill:#e20c1a"
       points="216.9,214.6 211.8,239.2 218.7,239.2 223.4,214.6 "
       class="st5"
       id="XMLID_41_" />
    <polygon
       transform="matrix(0.56918544,0,0,0.56918544,-13.262021,-100.15571)"
       style="fill:#e20c1a"
       points="337.6,214.6 332.6,239.3 339.5,239.3 344.2,214.6 "
       class="st5"
       id="XMLID_40_" />
    <polygon
       transform="matrix(0.56918544,0,0,0.56918544,-13.262021,-100.15571)"
       style="fill:#e20c1a"
       points="124.9,214.6 119.8,239.2 126.7,239.2 131.4,214.6 "
       class="st5"
       id="XMLID_39_" />
    <polygon
       transform="matrix(0.56918544,0,0,0.56918544,-13.262021,-100.15571)"
       style="fill:#e20c1a"
       points="81.9,214.6 76.8,239.2 83.8,239.2 88.4,214.6 "
       class="st5"
       id="XMLID_38_" />
    <polygon
       transform="matrix(0.56918544,0,0,0.56918544,-13.262021,-100.15571)"
       style="fill:#e20c1a"
       points="320,217.4 318.8,223.2 325.5,223.2 326.5,217.4 320,217.4 "
       class="st5"
       id="XMLID_37_" />
    <polygon
       transform="matrix(0.56918544,0,0,0.56918544,-13.262021,-100.15571)"
       style="fill:#e20c1a"
       points="196,241 194.9,246.6 201.6,246.6 202.6,241 196,241 "
       class="st5"
       id="XMLID_36_" />
    <polygon
       transform="matrix(0.56918544,0,0,0.56918544,-13.262021,-100.15571)"
       style="fill:#e20c1a"
       points="103.8,241 102.7,246.7 109.4,246.7 110.4,241 103.8,241 "
       class="st5"
       id="XMLID_35_" />
    <polygon
       transform="matrix(0.56918544,0,0,0.56918544,-13.262021,-100.15571)"
       style="fill:#e20c1a"
       points="94.2,224.4 93.1,230.4 99.8,230.4 100.8,224.3 94.2,224.3 "
       class="st5"
       id="XMLID_34_" />
    <path
       style="fill:#e20c1a"
       d="m 135.80765,27.626426 -4.04122,0 1.02453,-5.578017 -3.98429,0 -1.19529,5.578017 -4.15506,0 -1.13837,5.008832 -4.09813,0 -0.68303,3.415113 16.5633,0 1.70756,-8.423945 z m -5.23651,5.179588 -3.81354,0 0.34151,-1.59372 3.75662,0 -0.28459,1.59372 z"
       class="st5"
       id="XMLID_11_" />
    <polygon
       transform="matrix(0.56918544,0,0,0.56918544,-13.262021,-100.15571)"
       style="fill:#e20c1a"
       points="51.3,241 38,241 36.9,246.6 50.2,246.6 "
       class="st5"
       id="XMLID_31_" />
    <polygon
       transform="matrix(0.56918544,0,0,0.56918544,-13.262021,-100.15571)"
       style="fill:#e20c1a"
       points="27.8,215.1 26.5,221 41.5,221 42.8,215.1 "
       class="st5"
       id="XMLID_30_" />
    <polygon
       transform="matrix(0.56918544,0,0,0.56918544,-13.262021,-100.15571)"
       style="fill:#e20c1a"
       points="67.4,221.1 66.9,223.9 74.8,223.9 75.9,218 79.3,218 79.3,214.7 70.6,214.7 69.3,221.1 "
       class="st5"
       id="XMLID_29_" />
    <path
       style="fill:#e20c1a"
       d="m 104.55937,22.048409 -1.02454,5.521099 -3.30127,0 0,0 -0.17076,0 -0.683022,3.585868 0.227674,0 0,0 3.187438,0 -0.28459,1.366045 -7.11482,0 0.910696,-4.951913 -8.936211,0 -1.593719,8.367026 5.179587,0 -0.284592,1.081452 -8.310108,0 -0.626104,3.187438 12.009813,0 0.79686,-4.26889 11.383708,0 2.84593,-13.888125 -4.21197,0 z m -13.09127,10.643768 -2.049067,0 0.284592,-1.59372 0.05692,0 2.049067,0 -0.341511,1.59372 z"
       class="st5"
       id="XMLID_12_" />
    <polygon
       transform="matrix(0.56918544,0,0,0.56918544,-13.262021,-100.15571)"
       style="fill:#e20c1a"
       points="81.9,246.6 81.9,246.6 96.1,246.6 96.1,246.6 97.6,239.1 117.3,239.1 122.3,214.6 115.6,214.6 113.7,224.4 107,224.4 105.8,230.5 106,230.5 112.1,230.5 112.1,230.4 112.6,230.4 112,233.1 111.9,233.1 111.9,233.2 92.7,233.2 91.2,241 90.7,241 83,241 "
       class="st5"
       id="XMLID_26_" />
    <path
       style="fill:#e20c1a"
       d="m 13.888125,28.480204 0,0 -0.284593,0 -0.853778,4.098135 0.170755,0 0,0 -3.927379,0 1.252208,-5.86261 -8.5947002,0 L 0,34.570489 l 4.496565,0 -0.2276742,1.422963 11.7821382,0 1.479883,-7.513248 -3.642787,0 z m -9.39156,0.683023 2.2767417,0 -0.3984298,1.878312 -2.2767417,0 0.3984298,-1.878312 z"
       class="st5"
       id="XMLID_13_" />
    <polygon
       transform="matrix(0.56918544,0,0,0.56918544,-13.262021,-100.15571)"
       style="fill:#e20c1a"
       points="166.1,241 152.8,241 151.7,246.6 165,246.6 "
       class="st5"
       id="XMLID_23_" />
    <polygon
       transform="matrix(0.56918544,0,0,0.56918544,-13.262021,-100.15571)"
       style="fill:#e20c1a"
       points="142.7,215 141.4,220.8 156.4,220.8 157.7,215 "
       class="st5"
       id="XMLID_22_" />
    <path
       style="fill:#e20c1a"
       d="m 79.34445,28.423286 0,0 -0.284592,0 -0.853779,4.098135 0.113838,0 0,0 -3.92738,0 1.252208,-5.86261 -8.5947,0 -1.650638,7.854759 4.496565,0 -0.227674,1.422964 11.782138,0 1.479883,-7.513248 -3.585869,0 z m -7.570166,2.561334 -2.276742,0 0.341511,-1.878312 2.276742,0 -0.341511,1.878312 z"
       class="st5"
       id="XMLID_14_" />
    <path
       style="fill:#e20c1a"
       d="m 173.7154,21.99149 -1.08146,5.578018 -4.55348,0 -0.68302,3.472031 4.43964,0 -0.28459,1.5368 -8.25319,0 0.9107,-5.008831 -3.69971,0 1.02454,-5.578018 -3.9843,0 -1.02453,5.578018 -4.49657,0 -0.79686,5.008831 -3.13052,0 0.79686,-5.008831 -8.99313,0 -1.65064,8.423944 5.35035,0 -0.17076,0.967615 -8.76545,0 -0.0569,0.284593 0,0 0,0 0,0 -0.56919,2.959764 12.52208,0 0.0569,0.05692 0.79686,-4.268891 27.43474,0 2.73209,-14.001962 -3.87046,0 z m -29.25614,10.814524 -1.87831,0 0.2846,-1.650638 1.93523,0 -0.34152,1.650638 z m 14.96958,0 -3.6997,0 0.28459,-1.650638 3.6997,0 -0.28459,1.650638 z"
       class="st5"
       id="XMLID_15_" />
    <polygon
       transform="matrix(0.56918544,0,0,0.56918544,-13.262021,-100.15571)"
       style="fill:#e20c1a"
       points="74.2,239.1 76.7,226 70,226 69.7,226 68.3,233.1 62.4,233.1 60.9,241 53.3,241 53.3,241.1 52.2,246.6 66.5,246.6 66.5,246.6 67.8,239.1 "
       class="st5"
       id="XMLID_16_" />
    <path
       style="fill:#e20c1a"
       d="m 102.5103,63.143598 c 0,0 0.0569,0 0,0 0,0 0,0 0,0 l 0,0 z"
       class="st5"
       id="XMLID_53_" />
    <polygon
       transform="matrix(0.56918544,0,0,0.56918544,-13.262021,-100.15571)"
       style="fill:#e20c1a"
       points="336.7,285.8 338.5,278.7 320,278.7 320.7,275.2 337.4,275.2 339,268.7 322.5,268.7 323.5,264.9 342.3,264.9 344.2,257.2 316.2,257.2 308.4,285.8 "
       class="st5"
       id="XMLID_54_" />
    <polygon
       transform="matrix(0.56918544,0,0,0.56918544,-13.262021,-100.15571)"
       style="fill:#e20c1a"
       points="293,285.8 302.5,285.8 310,257.2 300.3,257.2 "
       class="st5"
       id="XMLID_55_" />
    <polygon
       transform="matrix(0.56918544,0,0,0.56918544,-13.262021,-100.15571)"
       style="fill:#e20c1a"
       points="60.6,285.8 70.1,285.8 77.6,257.2 68,257.2 "
       class="st5"
       id="XMLID_56_" />
    <path
       style="fill:#e20c1a"
       d="m 58.455345,62.517494 5.634936,0 2.447497,-3.244357 5.521099,0 0,3.244357 5.46418,0 0.39843,-16.221785 -8.253189,0 -11.212953,16.221785 z m 13.945043,-7.171737 -3.244357,0 3.244357,-4.724239 0,4.724239 z"
       class="st5"
       id="XMLID_57_" />
    <path
       style="fill:#e20c1a"
       d="m 0,62.517494 5.6349359,0 2.4474973,-3.244357 5.5210988,0 0,3.244357 5.46418,0 0.39843,-16.221785 -8.310107,0 L 0,62.517494 Z m 13.945043,-7.171737 -3.244357,0 3.244357,-4.724239 0,4.724239 z"
       class="st5"
       id="XMLID_60_" />
    <polygon
       transform="matrix(0.56918544,0,0,0.56918544,-13.262021,-100.15571)"
       style="fill:#e20c1a"
       points="171.2,257.2 163.9,285.8 187.1,285.8 189.1,278.6 175.4,278.6 180.8,257.2 "
       class="st5"
       id="XMLID_63_" />
    <path
       style="fill:#e20c1a"
       d="m 43.542686,46.23879 -7.228655,0 -2.162905,0 -4.26889,16.221785 5.350343,0 1.650638,-5.691854 4.951913,5.691854 6.431795,0 -5.122669,-5.748773 c 0,0 6.374877,0.227674 6.65947,-4.951913 0,0 0.853778,-5.521099 -6.26104,-5.521099 m 0.739941,5.691854 c 0,0 0.05692,1.650638 -2.789008,1.764475 l -3.756624,0 0.739941,-3.187438 4.496565,0 c -0.05692,0 1.479882,0 1.309126,1.422963"
       class="st5"
       id="XMLID_64_" />
    <path
       style="fill:#e20c1a"
       d="m 146.3945,46.23879 -7.22866,0 -2.1629,0 -4.32581,16.221785 5.35034,0 1.65064,-5.691854 4.95191,5.691854 6.4318,0 -5.12267,-5.748773 c 0,0 6.37487,0.227674 6.65947,-4.951913 0.0569,0 0.91069,-5.521099 -6.20412,-5.521099 m 0.68302,5.691854 c 0,0 0.0569,1.650638 -2.78901,1.764475 l -3.75662,0 0.73994,-3.187438 4.49656,0 c 0,0 1.5368,0 1.30913,1.422963"
       class="st5"
       id="XMLID_67_" />
    <polygon
       transform="matrix(0.56918544,0,0,0.56918544,-13.262021,-100.15571)"
       style="fill:#e20c1a"
       points="258.2,257.3 250.6,257.3 252.4,254.7 241.6,254.7 239.2,257.3 231,257.3 223.5,285.8 251,285.8 252.8,278.7 234.5,278.7 235.4,275 252.4,275 254.1,268.4 237,268.4 237.9,264.7 256.6,264.7 "
       class="st5"
       id="XMLID_70_" />
    <path
       style="fill:#e20c1a"
       d="m 103.93326,51.247622 0,0 c 3.47203,-1.593719 9.78999,0.05692 9.78999,0.05692 l 1.13837,-4.155053 c 0,0 -4.95191,-1.024534 -9.96074,-0.512267 -1.76448,0.227674 -3.18744,0.739941 -3.52895,0.910697 -1.422967,0.626104 -3.073605,1.764474 -4.098138,3.585868 -0.455349,0.910697 -0.910697,1.992149 -1.252208,3.358194 0,0 -2.105986,7.79784 4.894996,8.537782 0,0 4.95191,0.739941 10.18842,-1.138371 l 1.93523,-7.684004 -5.91953,0 -1.13837,4.439647 c 0,0 -3.0736,1.5368 -4.6104,-0.113837 0,0 -0.0569,-0.05692 -0.0569,-0.05692 0,-0.05692 -0.0569,-0.113837 -0.11384,-0.113837 -0.22767,-0.284593 -0.28459,-0.683023 -0.34151,-0.967615 0,-0.113837 0,-0.227675 0,-0.39843 0,0 -0.0569,-1.821394 1.13837,-3.813543 0.28459,-0.512266 0.96762,-1.422963 1.93523,-1.93523"
       class="st5"
       id="XMLID_71_" />
  </g>
  <style
     type="text/css"
     id="style3">
	.st0{opacity:0.31;}
	.st1{clip-path:url(#XMLID_74_);}
	.st2{clip-path:url(#XMLID_75_);fill:#DF2627;}
	.st3{clip-path:url(#XMLID_76_);}
	.st4{clip-path:url(#XMLID_77_);fill:#DF2627;}
	.st5{fill:#E20C1A;}
</style>
</svg>
